<?xml version="1.0" encoding="UTF-8" standalone="no"?>
<!DOCTYPE svg PUBLIC "-//W3C//DTD SVG 1.1//EN"
 "http://www.w3.org/Graphics/SVG/1.1/DTD/svg11.dtd">
<!-- Generated by graphviz version 5.0.0 (20220707.1540)
 -->
<!-- Title: dependencies Pages: 1 -->
<svg width="645pt" height="247pt"
 viewBox="0.00 0.00 645.00 246.80" xmlns="http://www.w3.org/2000/svg" xmlns:xlink="http://www.w3.org/1999/xlink">
<g id="graph0" class="graph" transform="scale(1 1) rotate(0) translate(4 242.8)">
<title>dependencies</title>
<polygon fill="white" stroke="transparent" points="-4,4 -4,-242.8 641,-242.8 641,4 -4,4"/>
<text text-anchor="middle" x="318.5" y="-8.2" font-family="sans-serif" font-size="14.00">dependencies</text>
<g id="clust1" class="cluster">
<title>cluster_CommonModule</title>
<polygon fill="none" stroke="black" stroke-dasharray="1,5" points="8,-32.8 8,-230.8 629,-230.8 629,-32.8 8,-32.8"/>
</g>
<g id="clust3" class="cluster">
<title>cluster_CommonModule_imports</title>
<polygon fill="none" stroke="black" points="24,-40.8 24,-92.8 613,-92.8 613,-40.8 24,-40.8"/>
</g>
<g id="clust4" class="cluster">
<title>cluster_CommonModule_exports</title>
<polygon fill="none" stroke="black" points="16,-170.8 16,-222.8 621,-222.8 621,-170.8 16,-170.8"/>
</g>
<!-- AdminModule -->
<g id="node1" class="node">
<title>AdminModule</title>
<polygon fill="#8dd3c7" stroke="black" points="605.44,-84.8 602.44,-88.8 581.44,-88.8 578.44,-84.8 506.56,-84.8 506.56,-48.8 605.44,-48.8 605.44,-84.8"/>
<text text-anchor="middle" x="556" y="-62.6" font-family="Times,serif" font-size="14.00">AdminModule</text>
</g>
<!-- CommonModule -->
<g id="node6" class="node">
<title>CommonModule</title>
<polygon fill="#8dd3c7" stroke="black" points="389.67,-149.8 386.67,-153.8 365.67,-153.8 362.67,-149.8 278.33,-149.8 278.33,-113.8 389.67,-113.8 389.67,-149.8"/>
<text text-anchor="middle" x="334" y="-127.6" font-family="Times,serif" font-size="14.00">CommonModule</text>
</g>
<!-- AdminModule&#45;&gt;CommonModule -->
<g id="edge1" class="edge">
<title>AdminModule&#45;&gt;CommonModule</title>
<path fill="none" stroke="black" d="M573.82,-85.07C573.82,-103.36 573.82,-128.8 573.82,-128.8 573.82,-128.8 399.93,-128.8 399.93,-128.8"/>
<polygon fill="black" stroke="black" points="399.93,-125.3 389.93,-128.8 399.93,-132.3 399.93,-125.3"/>
</g>
<!-- AuthModule -->
<g id="node2" class="node">
<title>AuthModule</title>
<polygon fill="#8dd3c7" stroke="black" points="488.55,-84.8 485.55,-88.8 464.55,-88.8 461.55,-84.8 401.45,-84.8 401.45,-48.8 488.55,-48.8 488.55,-84.8"/>
<text text-anchor="middle" x="445" y="-62.6" font-family="Times,serif" font-size="14.00">AuthModule</text>
</g>
<!-- AuthModule&#45;&gt;CommonModule -->
<g id="edge2" class="edge">
<title>AuthModule&#45;&gt;CommonModule</title>
<path fill="none" stroke="black" d="M460.01,-84.81C460.01,-100.85 460.01,-121.8 460.01,-121.8 460.01,-121.8 400,-121.8 400,-121.8"/>
<polygon fill="black" stroke="black" points="400,-118.3 390,-121.8 400,-125.3 400,-118.3"/>
</g>
<!-- ConfigModule -->
<g id="node3" class="node">
<title>ConfigModule</title>
<polygon fill="#8dd3c7" stroke="black" points="383.44,-84.8 380.44,-88.8 359.44,-88.8 356.44,-84.8 284.56,-84.8 284.56,-48.8 383.44,-48.8 383.44,-84.8"/>
<text text-anchor="middle" x="334" y="-62.6" font-family="Times,serif" font-size="14.00">ConfigModule</text>
</g>
<!-- ConfigModule&#45;&gt;CommonModule -->
<g id="edge3" class="edge">
<title>ConfigModule&#45;&gt;CommonModule</title>
<path fill="none" stroke="black" d="M334,-84.91C334,-84.91 334,-103.79 334,-103.79"/>
<polygon fill="black" stroke="black" points="330.5,-103.79 334,-113.79 337.5,-103.79 330.5,-103.79"/>
</g>
<!-- DatabaseModule -->
<g id="node4" class="node">
<title>DatabaseModule</title>
<polygon fill="#8dd3c7" stroke="black" points="266.36,-84.8 263.36,-88.8 242.36,-88.8 239.36,-84.8 155.64,-84.8 155.64,-48.8 266.36,-48.8 266.36,-84.8"/>
<text text-anchor="middle" x="211" y="-62.6" font-family="Times,serif" font-size="14.00">DatabaseModule</text>
</g>
<!-- DatabaseModule&#45;&gt;CommonModule -->
<g id="edge4" class="edge">
<title>DatabaseModule&#45;&gt;CommonModule</title>
<path fill="none" stroke="black" d="M228.64,-84.81C228.64,-100.85 228.64,-121.8 228.64,-121.8 228.64,-121.8 268.24,-121.8 268.24,-121.8"/>
<polygon fill="black" stroke="black" points="268.24,-125.3 278.24,-121.8 268.24,-118.3 268.24,-125.3"/>
</g>
<!-- GraphqlModule -->
<g id="node5" class="node">
<title>GraphqlModule</title>
<polygon fill="#8dd3c7" stroke="black" points="137.93,-84.8 134.93,-88.8 113.93,-88.8 110.93,-84.8 32.07,-84.8 32.07,-48.8 137.93,-48.8 137.93,-84.8"/>
<text text-anchor="middle" x="85" y="-62.6" font-family="Times,serif" font-size="14.00">GraphqlModule</text>
</g>
<!-- GraphqlModule&#45;&gt;CommonModule -->
<g id="edge5" class="edge">
<title>GraphqlModule&#45;&gt;CommonModule</title>
<path fill="none" stroke="black" d="M99.07,-85.07C99.07,-103.36 99.07,-128.8 99.07,-128.8 99.07,-128.8 268.33,-128.8 268.33,-128.8"/>
<polygon fill="black" stroke="black" points="268.33,-132.3 278.33,-128.8 268.33,-125.3 268.33,-132.3"/>
</g>
<!-- AdminModule  -->
<g id="node7" class="node">
<title>AdminModule </title>
<polygon fill="#fb8072" stroke="black" points="612.94,-214.8 511.06,-214.8 511.06,-178.8 612.94,-178.8 612.94,-214.8"/>
<text text-anchor="middle" x="562" y="-192.6" font-family="Times,serif" font-size="14.00">AdminModule </text>
</g>
<!-- CommonModule&#45;&gt;AdminModule  -->
<g id="edge6" class="edge">
<title>CommonModule&#45;&gt;AdminModule </title>
<path fill="none" stroke="black" stroke-dasharray="5,2" d="M389.85,-135.8C451.59,-135.8 542.43,-135.8 542.43,-135.8 542.43,-135.8 542.43,-168.5 542.43,-168.5"/>
<polygon fill="black" stroke="black" points="538.93,-168.5 542.43,-178.5 545.93,-168.5 538.93,-168.5"/>
</g>
<!-- AuthModule  -->
<g id="node8" class="node">
<title>AuthModule </title>
<polygon fill="#fb8072" stroke="black" points="493.55,-214.8 402.45,-214.8 402.45,-178.8 493.55,-178.8 493.55,-214.8"/>
<text text-anchor="middle" x="448" y="-192.6" font-family="Times,serif" font-size="14.00">AuthModule </text>
</g>
<!-- CommonModule&#45;&gt;AuthModule  -->
<g id="edge7" class="edge">
<title>CommonModule&#45;&gt;AuthModule </title>
<path fill="none" stroke="black" stroke-dasharray="5,2" d="M389.72,-142.8C411.45,-142.8 431.24,-142.8 431.24,-142.8 431.24,-142.8 431.24,-168.52 431.24,-168.52"/>
<polygon fill="black" stroke="black" points="427.74,-168.52 431.24,-178.52 434.74,-168.52 427.74,-168.52"/>
</g>
<!-- ConfigModule  -->
<g id="node9" class="node">
<title>ConfigModule </title>
<polygon fill="#fb8072" stroke="black" points="384.94,-214.8 283.06,-214.8 283.06,-178.8 384.94,-178.8 384.94,-214.8"/>
<text text-anchor="middle" x="334" y="-192.6" font-family="Times,serif" font-size="14.00">ConfigModule </text>
</g>
<!-- CommonModule&#45;&gt;ConfigModule  -->
<g id="edge8" class="edge">
<title>CommonModule&#45;&gt;ConfigModule </title>
<path fill="none" stroke="black" stroke-dasharray="5,2" d="M334,-149.91C334,-149.91 334,-168.79 334,-168.79"/>
<polygon fill="black" stroke="black" points="330.5,-168.79 334,-178.79 337.5,-168.79 330.5,-168.79"/>
</g>
<!-- DatabaseModule  -->
<g id="node10" class="node">
<title>DatabaseModule </title>
<polygon fill="#fb8072" stroke="black" points="265.36,-214.8 150.64,-214.8 150.64,-178.8 265.36,-178.8 265.36,-214.8"/>
<text text-anchor="middle" x="208" y="-192.6" font-family="Times,serif" font-size="14.00">DatabaseModule </text>
</g>
<!-- CommonModule&#45;&gt;DatabaseModule  -->
<g id="edge9" class="edge">
<title>CommonModule&#45;&gt;DatabaseModule </title>
<path fill="none" stroke="black" stroke-dasharray="5,2" d="M278.33,-142.8C238.58,-142.8 192.11,-142.8 192.11,-142.8 192.11,-142.8 192.11,-168.52 192.11,-168.52"/>
<polygon fill="black" stroke="black" points="188.61,-168.52 192.11,-178.52 195.61,-168.52 188.61,-168.52"/>
</g>
<!-- GraphqlModule  -->
<g id="node11" class="node">
<title>GraphqlModule </title>
<polygon fill="#fb8072" stroke="black" points="132.43,-214.8 23.57,-214.8 23.57,-178.8 132.43,-178.8 132.43,-214.8"/>
<text text-anchor="middle" x="78" y="-192.6" font-family="Times,serif" font-size="14.00">GraphqlModule </text>
</g>
<!-- CommonModule&#45;&gt;GraphqlModule  -->
<g id="edge10" class="edge">
<title>CommonModule&#45;&gt;GraphqlModule </title>
<path fill="none" stroke="black" stroke-dasharray="5,2" d="M278.08,-135.8C199.44,-135.8 65.68,-135.8 65.68,-135.8 65.68,-135.8 65.68,-168.5 65.68,-168.5"/>
<polygon fill="black" stroke="black" points="62.18,-168.5 65.68,-178.5 69.18,-168.5 62.18,-168.5"/>
</g>
</g>
</svg>
