<?xml version="1.0" encoding="UTF-8" standalone="no"?>
<!DOCTYPE svg PUBLIC "-//W3C//DTD SVG 1.1//EN"
 "http://www.w3.org/Graphics/SVG/1.1/DTD/svg11.dtd">
<!-- Generated by graphviz version 5.0.0 (20220707.1540)
 -->
<!-- Title: dependencies Pages: 1 -->
<svg width="1717pt" height="380pt"
 viewBox="0.00 0.00 1717.00 379.80" xmlns="http://www.w3.org/2000/svg" xmlns:xlink="http://www.w3.org/1999/xlink">
<g id="graph0" class="graph" transform="scale(1 1) rotate(0) translate(4 375.8)">
<title>dependencies</title>
<polygon fill="white" stroke="transparent" points="-4,4 -4,-375.8 1713,-375.8 1713,4 -4,4"/>
<text text-anchor="middle" x="854.5" y="-8.2" font-family="sans-serif" font-size="14.00">dependencies</text>
<g id="clust13" class="cluster">
<title>cluster_AppModule</title>
<polygon fill="none" stroke="black" stroke-dasharray="1,5" points="290,-162.8 290,-363.8 696,-363.8 696,-162.8 290,-162.8"/>
</g>
<g id="clust15" class="cluster">
<title>cluster_AppModule_imports</title>
<polygon fill="none" stroke="black" points="436,-170.8 436,-298.8 688,-298.8 688,-170.8 436,-170.8"/>
</g>
<g id="clust18" class="cluster">
<title>cluster_AppModule_providers</title>
<polygon fill="none" stroke="black" points="298,-246.8 298,-298.8 428,-298.8 428,-246.8 298,-246.8"/>
</g>
<g id="clust19" class="cluster">
<title>cluster_AuthModule</title>
<polygon fill="none" stroke="black" stroke-dasharray="1,5" points="704,-32.8 704,-230.8 1108,-230.8 1108,-32.8 704,-32.8"/>
</g>
<g id="clust21" class="cluster">
<title>cluster_AuthModule_imports</title>
<polygon fill="none" stroke="black" points="712,-40.8 712,-92.8 826,-92.8 826,-40.8 712,-40.8"/>
</g>
<g id="clust22" class="cluster">
<title>cluster_AuthModule_exports</title>
<polygon fill="none" stroke="black" points="781,-170.8 781,-222.8 887,-222.8 887,-170.8 781,-170.8"/>
</g>
<g id="clust24" class="cluster">
<title>cluster_AuthModule_providers</title>
<polygon fill="none" stroke="black" points="834,-40.8 834,-92.8 1100,-92.8 1100,-40.8 834,-40.8"/>
</g>
<g id="clust25" class="cluster">
<title>cluster_CommonModule</title>
<polygon fill="none" stroke="black" stroke-dasharray="1,5" points="704,-238.8 704,-306.8 1701,-306.8 1701,-238.8 704,-238.8"/>
</g>
<g id="clust27" class="cluster">
<title>cluster_CommonModule_imports</title>
<polygon fill="none" stroke="black" points="1326,-246.8 1326,-298.8 1693,-298.8 1693,-246.8 1326,-246.8"/>
</g>
<g id="clust28" class="cluster">
<title>cluster_CommonModule_exports</title>
<polygon fill="none" stroke="black" points="712,-246.8 712,-298.8 1318,-298.8 1318,-246.8 712,-246.8"/>
</g>
<g id="clust49" class="cluster">
<title>cluster_UsersModule</title>
<polygon fill="none" stroke="black" stroke-dasharray="1,5" points="8,-162.8 8,-230.8 282,-230.8 282,-162.8 8,-162.8"/>
</g>
<g id="clust52" class="cluster">
<title>cluster_UsersModule_exports</title>
<polygon fill="none" stroke="black" points="164,-170.8 164,-222.8 274,-222.8 274,-170.8 164,-170.8"/>
</g>
<g id="clust54" class="cluster">
<title>cluster_UsersModule_providers</title>
<polygon fill="none" stroke="black" points="16,-170.8 16,-222.8 156,-222.8 156,-170.8 16,-170.8"/>
</g>
<!-- AnimalsModule -->
<g id="node1" class="node">
<title>AnimalsModule</title>
<polygon fill="#8dd3c7" stroke="black" points="550.49,-214.8 547.49,-218.8 526.49,-218.8 523.49,-214.8 443.51,-214.8 443.51,-178.8 550.49,-178.8 550.49,-214.8"/>
<text text-anchor="middle" x="497" y="-192.6" font-family="Times,serif" font-size="14.00">AnimalsModule</text>
</g>
<!-- AppModule -->
<g id="node4" class="node">
<title>AppModule</title>
<polygon fill="#8dd3c7" stroke="black" points="563.66,-355.8 560.66,-359.8 539.66,-359.8 536.66,-355.8 480.34,-355.8 480.34,-319.8 563.66,-319.8 563.66,-355.8"/>
<text text-anchor="middle" x="522" y="-333.6" font-family="Times,serif" font-size="14.00">AppModule</text>
</g>
<!-- AnimalsModule&#45;&gt;AppModule -->
<g id="edge1" class="edge">
<title>AnimalsModule&#45;&gt;AppModule</title>
<path fill="none" stroke="black" d="M543.11,-214.94C543.11,-214.94 543.11,-309.73 543.11,-309.73"/>
<polygon fill="black" stroke="black" points="539.61,-309.72 543.11,-319.73 546.61,-309.73 539.61,-309.72"/>
</g>
<!-- CommonModule -->
<g id="node2" class="node">
<title>CommonModule</title>
<polygon fill="#8dd3c7" stroke="black" points="679.67,-214.8 676.67,-218.8 655.67,-218.8 652.67,-214.8 568.33,-214.8 568.33,-178.8 679.67,-178.8 679.67,-214.8"/>
<text text-anchor="middle" x="624" y="-192.6" font-family="Times,serif" font-size="14.00">CommonModule</text>
</g>
<!-- UsersModule -->
<g id="node3" class="node">
<title>UsersModule</title>
<polygon fill="#8dd3c7" stroke="black" points="535.94,-290.8 532.94,-294.8 511.94,-294.8 508.94,-290.8 444.06,-290.8 444.06,-254.8 535.94,-254.8 535.94,-290.8"/>
<text text-anchor="middle" x="490" y="-268.6" font-family="Times,serif" font-size="14.00">UsersModule</text>
</g>
<!-- CommonModule&#45;&gt;UsersModule -->
<g id="edge19" class="edge">
<title>CommonModule&#45;&gt;UsersModule</title>
<path fill="none" stroke="black" d="M667.43,-214.81C667.43,-237.29 667.43,-272.8 667.43,-272.8 667.43,-272.8 546.15,-272.8 546.15,-272.8"/>
<polygon fill="black" stroke="black" points="546.15,-269.3 536.15,-272.8 546.15,-276.3 546.15,-269.3"/>
</g>
<!-- CommonModule&#45;&gt;AppModule -->
<g id="edge2" class="edge">
<title>CommonModule&#45;&gt;AppModule</title>
<path fill="none" stroke="black" d="M568.2,-196.8C561.61,-196.8 557.16,-196.8 557.16,-196.8 557.16,-196.8 557.16,-309.66 557.16,-309.66"/>
<polygon fill="black" stroke="black" points="553.66,-309.66 557.16,-319.66 560.66,-309.66 553.66,-309.66"/>
</g>
<!-- AdminModule  -->
<g id="node14" class="node">
<title>AdminModule </title>
<polygon fill="#fb8072" stroke="black" points="821.94,-290.8 720.06,-290.8 720.06,-254.8 821.94,-254.8 821.94,-290.8"/>
<text text-anchor="middle" x="771" y="-268.6" font-family="Times,serif" font-size="14.00">AdminModule </text>
</g>
<!-- CommonModule&#45;&gt;AdminModule  -->
<g id="edge14" class="edge">
<title>CommonModule&#45;&gt;AdminModule </title>
<path fill="none" stroke="black" stroke-dasharray="5,2" d="M679.79,-202.8C719.62,-202.8 766.18,-202.8 766.18,-202.8 766.18,-202.8 766.18,-244.77 766.18,-244.77"/>
<polygon fill="black" stroke="black" points="762.68,-244.77 766.18,-254.77 769.68,-244.77 762.68,-244.77"/>
</g>
<!-- AuthModule  -->
<g id="node15" class="node">
<title>AuthModule </title>
<polygon fill="#fb8072" stroke="black" points="1309.55,-290.8 1218.45,-290.8 1218.45,-254.8 1309.55,-254.8 1309.55,-290.8"/>
<text text-anchor="middle" x="1264" y="-268.6" font-family="Times,serif" font-size="14.00">AuthModule </text>
</g>
<!-- CommonModule&#45;&gt;AuthModule  -->
<g id="edge15" class="edge">
<title>CommonModule&#45;&gt;AuthModule </title>
<path fill="none" stroke="black" stroke-dasharray="5,2" d="M655.02,-215.22C655.02,-224.08 655.02,-232.8 655.02,-232.8 655.02,-232.8 1264,-232.8 1264,-232.8 1264,-232.8 1264,-244.67 1264,-244.67"/>
<polygon fill="black" stroke="black" points="1260.5,-244.67 1264,-254.67 1267.5,-244.67 1260.5,-244.67"/>
</g>
<!-- ConfigModule  -->
<g id="node16" class="node">
<title>ConfigModule </title>
<polygon fill="#fb8072" stroke="black" points="1200.94,-290.8 1099.06,-290.8 1099.06,-254.8 1200.94,-254.8 1200.94,-290.8"/>
<text text-anchor="middle" x="1150" y="-268.6" font-family="Times,serif" font-size="14.00">ConfigModule </text>
</g>
<!-- CommonModule&#45;&gt;ConfigModule  -->
<g id="edge16" class="edge">
<title>CommonModule&#45;&gt;ConfigModule </title>
<path fill="none" stroke="black" stroke-dasharray="5,2" d="M642.61,-214.9C642.61,-225.89 642.61,-237.8 642.61,-237.8 642.61,-237.8 1150,-237.8 1150,-237.8 1150,-237.8 1150,-244.48 1150,-244.48"/>
<polygon fill="black" stroke="black" points="1146.5,-244.48 1150,-254.48 1153.5,-244.48 1146.5,-244.48"/>
</g>
<!-- DatabaseModule  -->
<g id="node17" class="node">
<title>DatabaseModule </title>
<polygon fill="#fb8072" stroke="black" points="1081.36,-290.8 966.64,-290.8 966.64,-254.8 1081.36,-254.8 1081.36,-290.8"/>
<text text-anchor="middle" x="1024" y="-268.6" font-family="Times,serif" font-size="14.00">DatabaseModule </text>
</g>
<!-- CommonModule&#45;&gt;DatabaseModule  -->
<g id="edge17" class="edge">
<title>CommonModule&#45;&gt;DatabaseModule </title>
<path fill="none" stroke="black" stroke-dasharray="5,2" d="M630.2,-214.85C630.2,-229.17 630.2,-246.8 630.2,-246.8 630.2,-246.8 1009.52,-246.8 1009.52,-246.8 1009.52,-246.8 1009.52,-247.59 1009.52,-247.59"/>
<polygon fill="black" stroke="black" points="1006.02,-244.74 1009.52,-254.74 1013.02,-244.74 1006.02,-244.74"/>
</g>
<!-- GraphqlModule  -->
<g id="node18" class="node">
<title>GraphqlModule </title>
<polygon fill="#fb8072" stroke="black" points="948.43,-290.8 839.57,-290.8 839.57,-254.8 948.43,-254.8 948.43,-290.8"/>
<text text-anchor="middle" x="894" y="-268.6" font-family="Times,serif" font-size="14.00">GraphqlModule </text>
</g>
<!-- CommonModule&#45;&gt;GraphqlModule  -->
<g id="edge18" class="edge">
<title>CommonModule&#45;&gt;GraphqlModule </title>
<path fill="none" stroke="black" stroke-dasharray="5,2" d="M617.8,-215.08C617.8,-230.75 617.8,-250.8 617.8,-250.8 617.8,-250.8 859.14,-250.8 859.14,-250.8 859.14,-250.8 859.14,-251.18 859.14,-251.18"/>
<polygon fill="black" stroke="black" points="855.64,-244.63 859.14,-254.63 862.64,-244.63 855.64,-244.63"/>
</g>
<!-- UsersModule&#45;&gt;AppModule -->
<g id="edge3" class="edge">
<title>UsersModule&#45;&gt;AppModule</title>
<path fill="none" stroke="black" d="M507.94,-290.91C507.94,-290.91 507.94,-309.79 507.94,-309.79"/>
<polygon fill="black" stroke="black" points="504.44,-309.79 507.94,-319.79 511.44,-309.79 504.44,-309.79"/>
</g>
<!-- UsersService  -->
<g id="node19" class="node">
<title>UsersService </title>
<polygon fill="#fb8072" stroke="black" points="265.86,-214.8 172.14,-214.8 172.14,-178.8 265.86,-178.8 265.86,-214.8"/>
<text text-anchor="middle" x="219" y="-192.6" font-family="Times,serif" font-size="14.00">UsersService </text>
</g>
<!-- UsersModule&#45;&gt;UsersService  -->
<g id="edge20" class="edge">
<title>UsersModule&#45;&gt;UsersService </title>
<path fill="none" stroke="black" stroke-dasharray="5,2" d="M444.24,-272.8C436.85,-272.8 431.56,-272.8 431.56,-272.8 431.56,-272.8 431.56,-196.8 431.56,-196.8 431.56,-196.8 275.91,-196.8 275.91,-196.8"/>
<polygon fill="black" stroke="black" points="275.91,-193.3 265.91,-196.8 275.91,-200.3 275.91,-193.3"/>
</g>
<!-- AppService -->
<g id="node5" class="node">
<title>AppService</title>
<ellipse fill="#fdb462" stroke="black" cx="363" cy="-272.8" rx="56.75" ry="18"/>
<text text-anchor="middle" x="363" y="-268.6" font-family="Times,serif" font-size="14.00">AppService</text>
</g>
<!-- AppService&#45;&gt;AppModule -->
<g id="edge4" class="edge">
<title>AppService&#45;&gt;AppModule</title>
<path fill="none" stroke="black" d="M363,-290.91C363,-310.14 363,-337.8 363,-337.8 363,-337.8 470.22,-337.8 470.22,-337.8"/>
<polygon fill="black" stroke="black" points="470.22,-341.3 480.22,-337.8 470.22,-334.3 470.22,-341.3"/>
</g>
<!-- ConfigModule -->
<g id="node6" class="node">
<title>ConfigModule</title>
<polygon fill="#8dd3c7" stroke="black" points="818.44,-84.8 815.44,-88.8 794.44,-88.8 791.44,-84.8 719.56,-84.8 719.56,-48.8 818.44,-48.8 818.44,-84.8"/>
<text text-anchor="middle" x="769" y="-62.6" font-family="Times,serif" font-size="14.00">ConfigModule</text>
</g>
<!-- ConfigModule&#45;&gt;CommonModule -->
<g id="edge11" class="edge">
<title>ConfigModule&#45;&gt;CommonModule</title>
<path fill="none" stroke="black" d="M743.11,-84.83C743.11,-119.22 743.11,-190.8 743.11,-190.8 743.11,-190.8 689.72,-190.8 689.72,-190.8"/>
<polygon fill="black" stroke="black" points="689.72,-187.3 679.72,-190.8 689.72,-194.3 689.72,-187.3"/>
</g>
<!-- AuthModule -->
<g id="node7" class="node">
<title>AuthModule</title>
<polygon fill="#8dd3c7" stroke="black" points="877.55,-149.8 874.55,-153.8 853.55,-153.8 850.55,-149.8 790.45,-149.8 790.45,-113.8 877.55,-113.8 877.55,-149.8"/>
<text text-anchor="middle" x="834" y="-127.6" font-family="Times,serif" font-size="14.00">AuthModule</text>
</g>
<!-- ConfigModule&#45;&gt;AuthModule -->
<g id="edge5" class="edge">
<title>ConfigModule&#45;&gt;AuthModule</title>
<path fill="none" stroke="black" d="M804.22,-84.91C804.22,-84.91 804.22,-103.79 804.22,-103.79"/>
<polygon fill="black" stroke="black" points="800.72,-103.79 804.22,-113.79 807.72,-103.79 800.72,-103.79"/>
</g>
<!-- AuthModule&#45;&gt;CommonModule -->
<g id="edge10" class="edge">
<title>AuthModule&#45;&gt;CommonModule</title>
<path fill="none" stroke="black" d="M790.23,-131.8C728.69,-131.8 624,-131.8 624,-131.8 624,-131.8 624,-168.69 624,-168.69"/>
<polygon fill="black" stroke="black" points="620.5,-168.69 624,-178.69 627.5,-168.69 620.5,-168.69"/>
</g>
<!-- AuthService  -->
<g id="node8" class="node">
<title>AuthService </title>
<polygon fill="#fb8072" stroke="black" points="878.98,-214.8 789.02,-214.8 789.02,-178.8 878.98,-178.8 878.98,-214.8"/>
<text text-anchor="middle" x="834" y="-192.6" font-family="Times,serif" font-size="14.00">AuthService </text>
</g>
<!-- AuthModule&#45;&gt;AuthService  -->
<g id="edge6" class="edge">
<title>AuthModule&#45;&gt;AuthService </title>
<path fill="none" stroke="black" stroke-dasharray="5,2" d="M834,-149.91C834,-149.91 834,-168.79 834,-168.79"/>
<polygon fill="black" stroke="black" points="830.5,-168.79 834,-178.79 837.5,-168.79 830.5,-168.79"/>
</g>
<!-- AuthService -->
<g id="node9" class="node">
<title>AuthService</title>
<ellipse fill="#fdb462" stroke="black" cx="1033" cy="-66.8" rx="59.11" ry="18"/>
<text text-anchor="middle" x="1033" y="-62.6" font-family="Times,serif" font-size="14.00">AuthService</text>
</g>
<!-- AuthService&#45;&gt;AuthModule -->
<g id="edge7" class="edge">
<title>AuthService&#45;&gt;AuthModule</title>
<path fill="none" stroke="black" d="M1045.35,-84.56C1045.35,-103.81 1045.35,-131.8 1045.35,-131.8 1045.35,-131.8 887.79,-131.8 887.79,-131.8"/>
<polygon fill="black" stroke="black" points="887.79,-128.3 877.79,-131.8 887.79,-135.3 887.79,-128.3"/>
</g>
<!-- JwtStrategy -->
<g id="node10" class="node">
<title>JwtStrategy</title>
<ellipse fill="#fdb462" stroke="black" cx="899" cy="-66.8" rx="56.77" ry="18"/>
<text text-anchor="middle" x="899" y="-62.6" font-family="Times,serif" font-size="14.00">JwtStrategy</text>
</g>
<!-- JwtStrategy&#45;&gt;AuthModule -->
<g id="edge8" class="edge">
<title>JwtStrategy&#45;&gt;AuthModule</title>
<path fill="none" stroke="black" d="M860.07,-79.95C860.07,-79.95 860.07,-103.49 860.07,-103.49"/>
<polygon fill="black" stroke="black" points="856.57,-103.49 860.07,-113.49 863.57,-103.49 856.57,-103.49"/>
</g>
<!-- AdminModule -->
<g id="node11" class="node">
<title>AdminModule</title>
<polygon fill="#8dd3c7" stroke="black" points="1685.44,-290.8 1682.44,-294.8 1661.44,-294.8 1658.44,-290.8 1586.56,-290.8 1586.56,-254.8 1685.44,-254.8 1685.44,-290.8"/>
<text text-anchor="middle" x="1636" y="-268.6" font-family="Times,serif" font-size="14.00">AdminModule</text>
</g>
<!-- AdminModule&#45;&gt;CommonModule -->
<g id="edge9" class="edge">
<title>AdminModule&#45;&gt;CommonModule</title>
<path fill="none" stroke="black" d="M1636,-254.56C1636,-239.23 1636,-219.8 1636,-219.8 1636,-219.8 605.39,-219.8 605.39,-219.8 605.39,-219.8 605.39,-219.31 605.39,-219.31"/>
<polygon fill="black" stroke="black" points="608.89,-224.92 605.39,-214.92 601.89,-224.92 608.89,-224.92"/>
</g>
<!-- DatabaseModule -->
<g id="node12" class="node">
<title>DatabaseModule</title>
<polygon fill="#8dd3c7" stroke="black" points="1568.36,-290.8 1565.36,-294.8 1544.36,-294.8 1541.36,-290.8 1457.64,-290.8 1457.64,-254.8 1568.36,-254.8 1568.36,-290.8"/>
<text text-anchor="middle" x="1513" y="-268.6" font-family="Times,serif" font-size="14.00">DatabaseModule</text>
</g>
<!-- DatabaseModule&#45;&gt;CommonModule -->
<g id="edge12" class="edge">
<title>DatabaseModule&#45;&gt;CommonModule</title>
<path fill="none" stroke="black" d="M1513,-254.55C1513,-240.62 1513,-223.8 1513,-223.8 1513,-223.8 592.98,-223.8 592.98,-223.8 592.98,-223.8 592.98,-222.92 592.98,-222.92"/>
<polygon fill="black" stroke="black" points="596.48,-224.96 592.98,-214.96 589.48,-224.96 596.48,-224.96"/>
</g>
<!-- GraphqlModule -->
<g id="node13" class="node">
<title>GraphqlModule</title>
<polygon fill="#8dd3c7" stroke="black" points="1439.93,-290.8 1436.93,-294.8 1415.93,-294.8 1412.93,-290.8 1334.07,-290.8 1334.07,-254.8 1439.93,-254.8 1439.93,-290.8"/>
<text text-anchor="middle" x="1387" y="-268.6" font-family="Times,serif" font-size="14.00">GraphqlModule</text>
</g>
<!-- GraphqlModule&#45;&gt;CommonModule -->
<g id="edge13" class="edge">
<title>GraphqlModule&#45;&gt;CommonModule</title>
<path fill="none" stroke="black" d="M1387,-254.65C1387,-242.53 1387,-228.8 1387,-228.8 1387,-228.8 580.57,-228.8 580.57,-228.8 580.57,-228.8 580.57,-225.04 580.57,-225.04"/>
<polygon fill="black" stroke="black" points="584.07,-225.04 580.57,-215.04 577.07,-225.04 584.07,-225.04"/>
</g>
<!-- UsersService -->
<g id="node20" class="node">
<title>UsersService</title>
<ellipse fill="#fdb462" stroke="black" cx="86" cy="-196.8" rx="61.97" ry="18"/>
<text text-anchor="middle" x="86" y="-192.6" font-family="Times,serif" font-size="14.00">UsersService</text>
</g>
<!-- UsersService&#45;&gt;UsersModule -->
<g id="edge21" class="edge">
<title>UsersService&#45;&gt;UsersModule</title>
<path fill="none" stroke="black" d="M86,-214.84C86,-227.36 86,-241.8 86,-241.8 86,-241.8 490,-241.8 490,-241.8 490,-241.8 490,-244.77 490,-244.77"/>
<polygon fill="black" stroke="black" points="486.5,-244.77 490,-254.77 493.5,-244.77 486.5,-244.77"/>
</g>
</g>
</svg>
